<svg width="18" height="18" viewBox="0 0 18 18" fill="none" xmlns="http://www.w3.org/2000/svg">
<path d="M6 12.75V11.25H12V12.75H6ZM12 7.5L9 10.5L6 7.5H7.875V5.25H10.125V7.5H12ZM3.75 2.25H14.25C14.6478 2.25 15.0294 2.40804 15.3107 2.68934C15.592 2.97064 15.75 3.35218 15.75 3.75V14.25C15.75 15.0825 15.0825 15.75 14.25 15.75H3.75C3.35218 15.75 2.97064 15.592 2.68934 15.3107C2.40804 15.0294 2.25 14.6478 2.25 14.25V3.75C2.25 2.925 2.925 2.25 3.75 2.25ZM3.75 3.75V14.25H14.25V3.75H3.75Z" fill="#CDCDCD"/>
</svg>
