<?xml version="1.0" encoding="utf-8"?>
<!-- Generator: Adobe Illustrator 25.0.1, SVG Export Plug-In . SVG Version: 6.00 Build 0)  -->
<svg version="1.1" id="Capa_1" xmlns="http://www.w3.org/2000/svg" xmlns:xlink="http://www.w3.org/1999/xlink" x="0px" y="0px"
	 viewBox="0 0 24 24" style="enable-background:new 0 0 24 24;" xml:space="preserve">
<g>
	<rect x="9" y="9" width="6" height="6"/>
	<path d="M23.6,15C23.6,15,23.6,15,23.6,15c0.1-0.4,0.2-0.9,0.3-1.4c0,0,0-0.1,0-0.1C24,13,24,12.5,24,12s0-1-0.1-1.5
		c0,0,0-0.1,0-0.1c-0.1-0.5-0.2-0.9-0.3-1.4c0,0,0,0,0,0l0,0c-0.5-1.9-1.4-3.5-2.6-4.9l0,0l0,0c-0.3-0.4-0.7-0.7-1.1-1.1l0,0l0,0
		c-1.4-1.2-3.1-2.1-4.9-2.6l0,0c0,0,0,0,0,0c-0.4-0.1-0.9-0.2-1.4-0.3c0,0-0.1,0-0.1,0C13,0,12.5,0,12,0s-1,0-1.5,0.1
		c0,0-0.1,0-0.1,0C9.9,0.2,9.4,0.3,9,0.4c0,0,0,0,0,0l0,0C7.1,0.9,5.5,1.8,4.1,3l0,0l0,0C3.7,3.3,3.3,3.7,3,4.1l0,0l0,0
		C1.8,5.5,0.9,7.1,0.4,9l0,0c0,0,0,0,0,0c-0.1,0.4-0.2,0.9-0.3,1.4c0,0,0,0.1,0,0.1C0,11,0,11.5,0,12s0,1,0.1,1.5c0,0,0,0.1,0,0.1
		c0.1,0.5,0.2,0.9,0.3,1.4c0,0,0,0,0,0l0,0c0.5,1.9,1.4,3.5,2.6,4.9l0,0l0,0c0.3,0.4,0.7,0.7,1.1,1.1l0,0l0,0
		c1.4,1.2,3.1,2.1,4.9,2.6l0,0c0,0,0,0,0,0c0.4,0.1,0.9,0.2,1.4,0.3c0,0,0.1,0,0.1,0C11,24,11.5,24,12,24s1,0,1.5-0.1
		c0,0,0.1,0,0.1,0c0.5-0.1,0.9-0.2,1.4-0.3c0,0,0,0,0,0l0,0c1.9-0.5,3.5-1.4,4.9-2.6l0,0l0,0c0.4-0.3,0.7-0.7,1.1-1.1l0,0l0,0
		C22.2,18.5,23.1,16.9,23.6,15L23.6,15z M21,16.3V15h-6v6h1.3c-0.4,0.2-0.9,0.4-1.3,0.5V21H9v0.5c-0.5-0.1-0.9-0.3-1.3-0.5H9v-6H3
		v1.3c-0.2-0.4-0.4-0.9-0.5-1.3H3V9H2.5C2.6,8.5,2.8,8.1,3,7.7V9h6V3H7.7C8.1,2.8,8.5,2.6,9,2.5V3h6V2.5c0.5,0.1,0.9,0.3,1.3,0.5H15
		v6h6V7.7c0.2,0.4,0.4,0.9,0.5,1.3H21v6h0.5C21.4,15.5,21.2,15.9,21,16.3z"/>
</g>
</svg>
