<svg width="16" height="15" viewBox="0 0 16 15" fill="none" xmlns="http://www.w3.org/2000/svg">
<path d="M8.12842 5.625H6.87842V4.375H8.12842V5.625ZM8.12842 10.625H6.87842V6.875H8.12842V10.625ZM7.50342 1.25C6.68266 1.25 5.86993 1.41166 5.11165 1.72575C4.35336 2.03984 3.66437 2.50022 3.084 3.08058C1.9119 4.25269 1.25342 5.8424 1.25342 7.5C1.25342 9.1576 1.9119 10.7473 3.084 11.9194C3.66437 12.4998 4.35336 12.9602 5.11165 13.2742C5.86993 13.5883 6.68266 13.75 7.50342 13.75C9.16102 13.75 10.7507 13.0915 11.9228 11.9194C13.0949 10.7473 13.7534 9.1576 13.7534 7.5C13.7534 6.67924 13.5918 5.86651 13.2777 5.10823C12.9636 4.34994 12.5032 3.66095 11.9228 3.08058C11.3425 2.50022 10.6535 2.03984 9.89519 1.72575C9.1369 1.41166 8.32418 1.25 7.50342 1.25V1.25Z" fill="#CDCDCD"/>
</svg>
