<svg width="18" height="18" viewBox="0 0 18 18" fill="none" xmlns="http://www.w3.org/2000/svg">
<path d="M7.94239 10.0575C8.24989 10.35 8.24989 10.83 7.94239 11.1225C7.64989 11.415 7.16989 11.415 6.87739 11.1225C6.17492 10.419 5.78037 9.46544 5.78037 8.47126C5.78037 7.47708 6.17492 6.52353 6.87739 5.82001L9.53239 3.16501C10.2359 2.46255 11.1895 2.06799 12.1836 2.06799C13.1778 2.06799 14.1314 2.46255 14.8349 3.16501C15.5374 3.86853 15.9319 4.82208 15.9319 5.81626C15.9319 6.81044 15.5374 7.76399 14.8349 8.46751L13.7174 9.58501C13.7249 8.97001 13.6274 8.35501 13.4174 7.77001L13.7699 7.41001C13.9801 7.20203 14.1471 6.95441 14.261 6.68148C14.3749 6.40856 14.4335 6.11576 14.4335 5.82001C14.4335 5.52427 14.3749 5.23146 14.261 4.95854C14.1471 4.68562 13.9801 4.438 13.7699 4.23001C13.5619 4.01976 13.3143 3.85284 13.0414 3.73893C12.7684 3.62501 12.4756 3.56635 12.1799 3.56635C11.8841 3.56635 11.5913 3.62501 11.3184 3.73893C11.0455 3.85284 10.7979 4.01976 10.5899 4.23001L7.94239 6.87751C7.73214 7.0855 7.56522 7.33312 7.4513 7.60604C7.33739 7.87896 7.27873 8.17177 7.27873 8.46751C7.27873 8.76326 7.33739 9.05606 7.4513 9.32898C7.56522 9.60191 7.73214 9.84953 7.94239 10.0575ZM10.0574 6.87751C10.3499 6.58501 10.8299 6.58501 11.1224 6.87751C11.8249 7.58103 12.2194 8.53458 12.2194 9.52876C12.2194 10.5229 11.8249 11.4765 11.1224 12.18L8.46739 14.835C7.76387 15.5375 6.81032 15.932 5.81614 15.932C4.82196 15.932 3.86841 15.5375 3.16489 14.835C2.46242 14.1315 2.06787 13.1779 2.06787 12.1838C2.06787 11.1896 2.46242 10.236 3.16489 9.53251L4.28239 8.41501C4.27489 9.03001 4.37239 9.64501 4.58239 10.2375L4.22989 10.59C4.01964 10.798 3.85272 11.0456 3.7388 11.3185C3.62489 11.5915 3.56623 11.8843 3.56623 12.18C3.56623 12.4758 3.62489 12.7686 3.7388 13.0415C3.85272 13.3144 4.01964 13.562 4.22989 13.77C4.43787 13.9803 4.68549 14.1472 4.95842 14.2611C5.23134 14.375 5.52415 14.4337 5.81989 14.4337C6.11563 14.4337 6.40844 14.375 6.68136 14.2611C6.95429 14.1472 7.20191 13.9803 7.40989 13.77L10.0574 11.1225C10.2676 10.9145 10.4346 10.6669 10.5485 10.394C10.6624 10.1211 10.721 9.82826 10.721 9.53251C10.721 9.23677 10.6624 8.94396 10.5485 8.67104C10.4346 8.39812 10.2676 8.1505 10.0574 7.94251C9.98455 7.87426 9.92649 7.79178 9.88679 7.70019C9.8471 7.6086 9.82662 7.50984 9.82662 7.41001C9.82662 7.31019 9.8471 7.21143 9.88679 7.11983C9.92649 7.02824 9.98455 6.94577 10.0574 6.87751Z" fill="#CDCDCD"/>
</svg>
