<svg width="36" height="50" viewBox="0 0 36 50" fill="none" xmlns="http://www.w3.org/2000/svg">
<path d="M29.0847 39.386H27.8584C25.7123 39.386 24.4247 40.604 24.4247 42.344V47.042C24.4247 48.84 25.7123 50 27.8584 50H28.8394C30.9854 50 32.273 48.84 32.273 47.042V44.49L32.0891 44.316H28.2262L28.0423 44.49V46.056L28.2262 46.114H29.6978L29.8817 46.288V46.984C29.8817 47.506 29.4525 47.912 28.8394 47.912H27.8584C27.2452 47.912 26.7547 47.506 26.7547 46.984V42.286C26.7547 41.764 27.2452 41.358 27.8584 41.358H29.0233C29.5139 41.358 29.9431 41.648 30.2496 42.286L30.4336 42.402H30.4949L32.273 41.59L32.3956 41.416L32.3343 41.3C31.6599 40.082 30.8015 39.386 29.0847 39.386Z" fill="#EB2E2D"/>
<path d="M23.5663 39.56H21.359L21.175 39.676L19.7035 44.838C19.5809 45.186 19.5195 45.592 19.4582 45.882H19.3969C19.3356 45.65 19.2743 45.186 19.1517 44.838L17.6188 39.734L17.4348 39.618H15.2275L15.0436 39.734L15.1049 39.966L18.4159 49.71L18.5998 49.826H20.1327L20.3166 49.71L23.6889 39.792C23.7502 39.676 23.7503 39.56 23.5663 39.56Z" fill="#EB2E2D"/>
<path d="M14.3691 39.56H12.1618L11.9779 39.676L11.0581 44.49L10.8742 45.534H10.8129L10.6289 44.49L9.40265 39.676L9.28002 39.56H7.99242L7.86979 39.676L6.64349 44.49L6.45955 45.592H6.39824L6.21429 44.49L5.29457 39.676L5.11063 39.56H2.9033L2.71936 39.676V39.734L5.11063 49.652L5.29457 49.768H6.88875L7.0727 49.652L8.42162 44.78L8.60556 43.852H8.66688L8.85082 44.78L10.2611 49.652L10.445 49.768H12.0392L12.2231 49.652L14.5531 39.734C14.5531 39.618 14.4918 39.56 14.3691 39.56Z" fill="#EB2E2D"/>
<path fill-rule="evenodd" clip-rule="evenodd" d="M16.2907 32.7379L16.604 32.9662H16.2907V32.7379Z" fill="#EB2E2D"/>
<path d="M30.0752 24.6466L22.7652 22.2548V29.9503L18.4837 33.0702V22.2548V21.8388V21.7348V21.5268V21.3188L18.5881 21.1108V21.0068L18.6926 20.6949L18.797 20.5909L18.9014 20.3829L19.0058 20.2789L19.1103 20.0709L19.2147 19.9669L19.3191 19.7589L19.4236 19.6549L19.6324 19.3429H19.7368L19.9457 19.1349L20.0501 19.031L20.259 18.927L20.3634 18.823L20.6767 18.511L20.7811 18.407L21.0944 18.199L21.4077 18.095H21.5121L21.8254 17.991H21.9298H22.2431H22.3475H22.7652C23.183 17.991 23.6007 18.095 24.0184 18.199L34.4611 21.5268L30.0752 24.6466Z" fill="#EB2E2D"/>
<path d="M12.3225 22.1508V29.8464L16.2907 32.7379V22.0468C16.2907 21.6308 16.1863 21.2148 16.0819 20.7989L15.9774 20.3829L15.873 20.2789L15.7686 20.0709L15.6642 19.9669L15.5597 19.7589L15.4553 19.6549L15.2465 19.3429L14.9332 19.031L14.8287 18.927L14.6199 18.719L14.5155 18.615L14.3066 18.511L14.2022 18.407L13.9933 18.303H13.8889L13.5756 18.199H13.4712L13.2623 18.095H13.1579L12.949 17.991H12.8446H12.6358H12.5313H12.218H12.1136H11.9048H11.8003H11.5915H11.487L11.0693 18.095L0.730999 21.4228L5.01253 24.5426L12.3225 22.1508Z" fill="#EB2E2D"/>
<path d="M1.77528 14.7672L9.08521 12.3753L4.59483 6.13566L6.26566 1.14394L12.6358 9.87945L12.8446 10.1914L12.949 10.2954L13.0535 10.5034L13.1579 10.6074L13.2623 10.8154V10.9194L13.3668 11.2314V11.3354V11.5434V11.7514V11.9593V12.0633V12.2713V12.3753V12.7913V12.8953L13.2623 13.2073V13.3113L13.1579 13.5193V13.6232L13.0535 13.8312V13.9352L12.8446 14.2472L12.6358 14.5592L12.5313 14.6632L12.3225 14.8712L12.218 14.9752L12.0092 15.1832L11.9048 15.2872L11.5915 15.4951C11.2782 15.7031 10.8605 15.9111 10.4428 16.1191L0 19.4469L1.77528 14.7672Z" fill="#EB2E2D"/>
<path d="M18.1704 10.5034H17.8571H17.7527H17.4394H17.335H17.0217H16.9173L16.4996 10.3994L16.1863 10.2954H16.0819L15.873 10.1914L15.7686 10.0874L15.5597 9.98345L15.4553 9.87945L15.142 9.67147C14.8287 9.46348 14.5155 9.15149 14.2022 8.83951L7.72766 0H13.0535L17.5439 6.23966L22.0343 0H27.3601L20.99 8.73552L20.5723 9.15149L20.4678 9.25549L20.0501 9.67147L19.7368 9.87945L19.6324 9.98345L19.4236 10.0874L19.3191 10.1914L19.1103 10.2954H19.0058L18.797 10.3994H18.6926L18.1704 10.5034Z" fill="#EB2E2D"/>
<path d="M24.6449 16.4311L24.1228 16.2231L24.0184 16.1191L23.4962 15.8071L23.183 15.5991L23.0785 15.4951L22.8697 15.2872L22.7652 15.1832L22.6608 14.9752L22.5564 14.8712L22.452 14.6632L22.3475 14.5592L22.1387 14.2472V14.1432L22.0343 13.8312V13.7272L21.9298 13.5193V13.4153L21.8254 13.1033V12.9993V12.5833V12.1673V12.0633V11.7514V11.6474V11.3354V11.2314L21.9298 10.8154C22.0342 10.3994 22.2431 10.0874 22.452 9.67147L28.9265 0.831954L30.5973 5.82368L26.1069 12.0633L33.4169 14.4552L35.0877 19.4469L24.6449 16.4311Z" fill="#EB2E2D"/>
</svg>
