<svg width="18" height="18" viewBox="0 0 18 18" fill="none" xmlns="http://www.w3.org/2000/svg">
<path d="M14.25 6C15.495 6 16.5 7.005 16.5 8.25V12.75H13.5V15.75H4.5V12.75H1.5V8.25C1.5 7.005 2.505 6 3.75 6H4.5V2.25H13.5V6H14.25ZM6 3.75V6H12V3.75H6ZM12 14.25V11.25H6V14.25H12ZM13.5 11.25H15V8.25C15 7.8375 14.6625 7.5 14.25 7.5H3.75C3.3375 7.5 3 7.8375 3 8.25V11.25H4.5V9.75H13.5V11.25ZM14.25 8.625C14.25 9.0375 13.9125 9.375 13.5 9.375C13.0875 9.375 12.75 9.0375 12.75 8.625C12.75 8.2125 13.0875 7.875 13.5 7.875C13.9125 7.875 14.25 8.2125 14.25 8.625Z" fill="#CDCDCD"/>
</svg>
