<svg width="65" height="14" viewBox="0 0 65 14" fill="none" xmlns="http://www.w3.org/2000/svg">
<path d="M4.08325 10.5C4.08325 10.5 2.33325 5.83329 2.33325 3.49996C2.33325 1.16663 3.49992 1.16663 3.49992 1.16663H4.08325C4.08325 1.16663 4.66659 1.16663 4.66659 1.74996C4.66659 2.33329 4.08325 2.33329 4.08325 3.49996C4.08325 4.66663 5.83325 5.83329 5.83325 7.58329C5.83325 9.33329 4.08325 10.5 4.08325 10.5ZM6.99992 9.91663C6.41658 9.91663 4.66659 11.375 4.66659 11.375C4.49159 11.4916 4.54992 11.6666 4.66659 11.8416C4.66659 11.8416 5.24992 12.8916 6.41658 12.8916H9.91658C10.5583 12.8916 11.0833 12.3666 11.0833 11.725V11.1416C11.0833 10.5 10.5583 9.97496 9.91658 9.97496H6.99992V9.91663Z" fill="#FFE780"/>
<path d="M38.0833 10.5C38.0833 10.5 36.3333 5.83329 36.3333 3.49996C36.3333 1.16663 37.4999 1.16663 37.4999 1.16663H38.0833C38.0833 1.16663 38.6666 1.16663 38.6666 1.74996C38.6666 2.33329 38.0833 2.33329 38.0833 3.49996C38.0833 4.66663 39.8333 5.83329 39.8333 7.58329C39.8333 9.33329 38.0833 10.5 38.0833 10.5ZM40.9999 9.91663C40.4166 9.91663 38.6666 11.375 38.6666 11.375C38.4916 11.4916 38.5499 11.6666 38.6666 11.8416C38.6666 11.8416 39.2499 12.8916 40.4166 12.8916H43.9166C44.5583 12.8916 45.0833 12.3666 45.0833 11.725V11.1416C45.0833 10.5 44.5583 9.97496 43.9166 9.97496H40.9999V9.91663Z" fill="#FFE780"/>
<path d="M21.0833 10.5C21.0833 10.5 19.3333 5.83329 19.3333 3.49996C19.3333 1.16663 20.4999 1.16663 20.4999 1.16663H21.0833C21.0833 1.16663 21.6666 1.16663 21.6666 1.74996C21.6666 2.33329 21.0833 2.33329 21.0833 3.49996C21.0833 4.66663 22.8333 5.83329 22.8333 7.58329C22.8333 9.33329 21.0833 10.5 21.0833 10.5ZM23.9999 9.91663C23.4166 9.91663 21.6666 11.375 21.6666 11.375C21.4916 11.4916 21.5499 11.6666 21.6666 11.8416C21.6666 11.8416 22.2499 12.8916 23.4166 12.8916H26.9166C27.5583 12.8916 28.0833 12.3666 28.0833 11.725V11.1416C28.0833 10.5 27.5583 9.97496 26.9166 9.97496H23.9999V9.91663Z" fill="#FFE780"/>
<path d="M55.0833 10.5C55.0833 10.5 53.3333 5.83329 53.3333 3.49996C53.3333 1.16663 54.4999 1.16663 54.4999 1.16663H55.0833C55.0833 1.16663 55.6666 1.16663 55.6666 1.74996C55.6666 2.33329 55.0833 2.33329 55.0833 3.49996C55.0833 4.66663 56.8333 5.83329 56.8333 7.58329C56.8333 9.33329 55.0833 10.5 55.0833 10.5ZM57.9999 9.91663C57.4166 9.91663 55.6666 11.375 55.6666 11.375C55.4916 11.4916 55.5499 11.6666 55.6666 11.8416C55.6666 11.8416 56.2499 12.8916 57.4166 12.8916H60.9166C61.5583 12.8916 62.0833 12.3666 62.0833 11.725V11.1416C62.0833 10.5 61.5583 9.97496 60.9166 9.97496H57.9999V9.91663Z" fill="#E6E6E6"/>
</svg>
