<svg width="29" height="29" viewBox="0 0 29 29" fill="none" xmlns="http://www.w3.org/2000/svg">
<g clip-path="url(#clip0)">
<path d="M16.9733 11.9167H22.6667V9.81667H18.4433L16.11 5.93167C15.76 5.34834 15.13 4.95167 14.4067 4.95167C14.1967 4.95167 14.01 4.98667 13.8233 5.045L7.5 7.01667V13.0833H9.6V8.80167L12.0617 8.03167L7.5 25.9167H9.6L12.9483 16.455L15.6667 20.0833V25.9167H17.7667V18.4383L14.8617 13.1417L15.7133 9.79334L16.9733 11.9167ZM16.8333 4.68334C18 4.68334 18.9333 3.75 18.9333 2.58334C18.9333 1.41667 18 0.483337 16.8333 0.483337C15.6667 0.483337 14.7333 1.41667 14.7333 2.58334C14.7333 3.75 15.6667 4.68334 16.8333 4.68334Z" fill="#486A89"/>
</g>
<defs>
<clipPath id="clip0">
<rect width="28" height="28" fill="white" transform="translate(0.5 0.25)"/>
</clipPath>
</defs>
</svg>
