<svg width="222" height="63" viewBox="0 0 222 63" fill="none" xmlns="http://www.w3.org/2000/svg">
<path d="M0 63H152.618V0H0V63ZM1.48042 1.47447H151.137V61.5255H1.48042V1.47447Z" fill="#EB2E2D"/>
<path d="M133.776 19.3022H131.084C126.374 19.3022 123.548 22.1171 123.548 26.1384V36.9959C123.548 41.1512 126.374 43.832 131.084 43.832H133.238C137.948 43.832 140.774 41.1512 140.774 36.9959V31.098L140.371 30.6959H131.892L131.488 31.098V34.7171L131.892 34.8512H135.122L135.526 35.2533V36.8618C135.526 38.0682 134.583 39.0065 133.238 39.0065H131.084C129.738 39.0065 128.662 38.0682 128.662 36.8618V26.0044C128.662 24.798 129.738 23.8597 131.084 23.8597H133.641C134.718 23.8597 135.66 24.5299 136.333 26.0044L136.737 26.2725H136.871L140.774 24.3959L141.043 23.9937L140.909 23.7257C139.428 20.9108 137.544 19.3022 133.776 19.3022Z" fill="#EB2E2D"/>
<path d="M121.663 19.7043H116.818L116.415 19.9724L113.185 31.9022C112.916 32.7065 112.781 33.6448 112.646 34.315H112.512C112.377 33.7788 112.243 32.7065 111.973 31.9022L108.609 20.1065L108.205 19.8384H103.36L102.956 20.1065L103.091 20.6426L110.358 43.1618L110.762 43.4299H114.127L114.531 43.1618L121.933 20.2405C122.067 19.9724 122.067 19.7043 121.663 19.7043Z" fill="#EB2E2D"/>
<path d="M101.476 19.7043H96.6309L96.2272 19.9724L94.2084 31.098L93.8047 33.5107H93.6701L93.2663 31.098L90.5747 19.9724L90.3055 19.7043H87.4792L87.2101 19.9724L84.5184 31.098L84.1147 33.6448H83.9801L83.5763 31.098L81.5576 19.9724L81.1538 19.7043H76.3088L75.9051 19.9724V20.1065L81.1538 43.0277L81.5576 43.2958H85.0567L85.4605 43.0277L88.4213 31.7682L88.8251 29.6235H88.9597L89.3634 31.7682L92.4588 43.0277L92.8626 43.2958H96.3618L96.7655 43.0277L101.88 20.1065C101.88 19.8384 101.745 19.7043 101.476 19.7043Z" fill="#EB2E2D"/>
<path d="M158.136 0V63H221.39V0H158.136ZM169.441 30.0255L178.861 26.9426L173.074 18.9L175.228 12.466L183.437 23.7255L183.706 24.1277L183.841 24.2617L183.976 24.5298L184.11 24.6638L184.245 24.9319V25.066L184.379 25.4681V25.6021V25.8702V26.1383V26.4064V26.5404V26.8085V26.9426V27.4787V27.6128L184.245 28.0149V28.1489L184.11 28.417V28.5511L183.976 28.8191V28.9532L183.706 29.3553L183.437 29.7574L183.303 29.8915L183.033 30.1596L182.899 30.2936L182.63 30.5617L182.495 30.6957L182.091 30.9638C181.688 31.2319 181.149 31.5 180.611 31.7681L167.153 36.0574L169.441 30.0255ZM188.551 53.483L183.033 49.4617V39.5426L173.613 42.6255L168.095 38.6043L181.419 34.3149L181.957 34.1809H182.091H182.361H182.495H182.764H182.899H183.303H183.437H183.706H183.841L184.11 34.3149H184.245L184.514 34.4489H184.648L185.052 34.583H185.187L185.456 34.717L185.591 34.8511L185.86 34.9851L185.994 35.1191L186.263 35.3872L186.398 35.5213L186.802 35.9234L187.071 36.3255L187.206 36.4596L187.34 36.7277L187.475 36.8617L187.609 37.1298L187.744 37.2638L187.879 37.8C188.013 38.3362 188.148 38.8723 188.148 39.4085V53.483H188.551ZM190.57 24.5298H190.166H190.032H189.628H189.494H189.09H188.955L188.417 24.3957L188.013 24.2617H187.879L187.609 24.1277L187.475 23.9936L187.206 23.8596L187.071 23.7255L186.667 23.4574C186.263 23.1894 185.86 22.7872 185.456 22.3851L177.112 10.9915H183.976L189.763 19.034L195.55 10.9915H202.414L194.204 22.2511L193.666 22.7872L193.531 22.9213L192.993 23.4574L192.589 23.7255L192.454 23.8596L192.185 23.9936L192.051 24.1277L191.781 24.2617H191.647L191.378 24.3957H191.243L190.57 24.5298ZM205.913 42.7596L196.492 39.6766V49.5957L190.974 53.617V39.6766V39.1404V39.0064V38.7383V38.4702L191.109 38.2021V38.0681L191.243 37.666L191.378 37.5319L191.512 37.2638L191.647 37.1298L191.781 36.8617L191.916 36.7277L192.051 36.4596L192.185 36.3255L192.454 35.9234H192.589L192.858 35.6553L192.993 35.5213L193.262 35.3872L193.396 35.2532L193.8 34.8511L193.935 34.717L194.339 34.4489L194.742 34.3149H194.877L195.281 34.1809H195.415H195.819H195.954H196.492C197.03 34.1809 197.569 34.3149 198.107 34.4489L211.565 38.7383L205.913 42.7596ZM198.914 32.1702L198.241 31.9021L198.107 31.7681L197.434 31.366L197.03 31.0979L196.896 30.9638L196.626 30.6957L196.492 30.5617L196.357 30.2936L196.223 30.1596L196.088 29.8915L195.954 29.7574L195.684 29.3553V29.2213L195.55 28.8191V28.6851L195.415 28.417V28.283L195.281 27.8809V27.7468V27.2106V26.6745V26.5404V26.1383V26.0043V25.6021V25.4681L195.415 24.9319C195.55 24.3957 195.819 23.9936 196.088 23.4574L204.432 12.0638L206.586 18.4979L200.799 26.5404L210.219 29.6234L212.373 36.0574L198.914 32.1702Z" fill="#EB2E2D"/>
</svg>
